# xmcd CD database file
#
# Track frame offsets:
#	150
#	20737
#	39127
#	64327
#	84785
#	105330
#	117422
#	133695
#	154837
#	172667
#	189557
#
# Disc length: 2745 seconds
#
# Revision: 2
# Processed by: cddbd v1.5.1PL0 Copyright (c) Steve Scherf et al.
# Submitted via: CDex 1.51
#
DISCID=810ab70b
DTITLE=Snowblind - The Falls
DYEAR=2002
DGENRE=Jazz
TTITLE0=Easy Girl
TTITLE1=Slowly
TTITLE2=Country
TTITLE3=Wish
TTITLE4=Summer In The Sun
TTITLE5=Remain The Same
TTITLE6=Cut
TTITLE7=Haven't Got A Clue
TTITLE8=Message For Glo'
TTITLE9=I'll Be There
TTITLE10=Fistfull Of Dollars
EXTD=YEAR: 2002
EXTT0=
EXTT1=
EXTT2=
EXTT3=
EXTT4=
EXTT5=
EXTT6=
EXTT7=
EXTT8=
EXTT9=
EXTT10=
PLAYORDER=
